<svg width="264" height="52" viewBox="0 0 264 52" fill="none" xmlns="http://www.w3.org/2000/svg">
<path d="M0.52 20.88V12.56H26.728L25.168 20.88H0.52ZM8.112 23.48H18.304V50H8.112V23.48ZM38.5527 29.096V20.932C40.1474 19.8227 42.1581 19.4933 44.5847 19.944V28.68C43.6141 28.68 42.6087 28.7147 41.5687 28.784C40.5634 28.8533 39.5581 28.9573 38.5527 29.096ZM36.5767 50H27.2167V20.1H35.1727L36.5767 24.104V50ZM58.8157 43.084V49.844C57.6717 50.2253 56.5623 50.416 55.4877 50.416C53.0957 50.416 51.1023 49.6707 49.5077 48.18C47.9477 46.6893 47.1677 44.4533 47.1677 41.472V20.1H56.5277V39.964C56.5277 41.836 57.2903 42.876 58.8157 43.084ZM60.8957 45.996V20.1H70.2557V50H62.2997L60.8957 45.996ZM84.9485 30.448L80.2165 37.936L78.2405 36.636C76.6112 35.5613 75.4325 34.4 74.7045 33.152C73.9765 31.904 73.6125 30.2747 73.6125 28.264C73.6125 25.3867 74.4618 23.2547 76.1605 21.868C77.8592 20.4467 80.6498 19.7187 84.5325 19.684C85.9885 19.684 87.3232 19.7533 88.5365 19.892C89.7845 19.996 90.7725 20.1173 91.5005 20.256C92.2632 20.3947 92.6445 20.464 92.6445 20.464L91.8645 27.38C91.8645 27.38 91.6045 27.3453 91.0845 27.276C90.5645 27.2067 89.8885 27.1373 89.0565 27.068C88.2592 26.964 87.4272 26.912 86.5605 26.912C85.3125 26.912 84.4112 27.016 83.8565 27.224C83.3018 27.432 83.0245 27.8307 83.0245 28.42C83.0245 28.7667 83.1285 29.0613 83.3365 29.304C83.5445 29.512 83.8738 29.7547 84.3245 30.032L84.9485 30.448ZM82.4005 39.34L87.1845 31.904L88.9005 32.996C90.5645 34.0707 91.7605 35.232 92.4885 36.48C93.2165 37.6933 93.5805 39.2707 93.5805 41.212C93.5805 44.2973 92.6965 46.62 90.9285 48.18C89.1605 49.7053 86.2658 50.4853 82.2445 50.52C80.4765 50.52 78.8472 50.416 77.3565 50.208C75.9005 50.0347 74.5658 49.792 73.3525 49.48L74.1325 42.408C74.1325 42.408 74.7738 42.512 76.0565 42.72C77.3392 42.8933 79.0378 42.98 81.1525 42.98C83.0592 42.98 84.0125 42.408 84.0125 41.264C84.0125 40.6747 83.5792 40.1027 82.7125 39.548L82.4005 39.34ZM95.1255 27.12V20.1H99.0255V13.548H108.385V20.1H114.053V27.12H95.1255ZM99.0255 29.252H108.385V40.068C108.385 41.0387 108.628 41.7493 109.113 42.2C109.633 42.6507 110.448 42.876 111.557 42.876C112.112 42.876 112.597 42.8587 113.013 42.824C113.429 42.7547 113.776 42.6853 114.053 42.616V49.532C113.221 49.8093 112.337 50.0347 111.401 50.208C110.5 50.416 109.581 50.52 108.645 50.52C105.456 50.52 103.047 49.844 101.417 48.492C99.8228 47.1053 99.0255 44.644 99.0255 41.108V29.252ZM127.55 38.56H117.41V12.56H127.55V38.56ZM117.41 41.16H139.042L137.43 50H117.41V41.16ZM141.373 20.1H150.733V50H141.373V20.1ZM141.113 10.74H150.993V17.812H141.113V10.74ZM166.841 27.016V20.256C167.985 19.8747 169.094 19.684 170.169 19.684C172.561 19.684 174.537 20.4293 176.097 21.92C177.691 23.4107 178.489 25.6467 178.489 28.628V50H169.129V30.136C169.129 28.264 168.366 27.224 166.841 27.016ZM164.241 24.104V50H154.881V20.1H162.837L164.241 24.104ZM191.764 24L182.404 43.188V11.988L191.764 10.74V24ZM191.816 50H181.884L196.496 20.1H206.48L191.816 50ZM195.82 47.764L201.28 36.48L206.48 50H196.548L195.82 47.764ZM220.331 50.52C218.285 50.52 216.413 50.2947 214.715 49.844C213.051 49.3933 211.612 48.596 210.399 47.452C209.185 46.308 208.249 44.7307 207.591 42.72C206.932 40.7093 206.603 38.144 206.603 35.024C206.603 30.1707 207.469 26.4613 209.203 23.896C210.936 21.296 213.727 19.892 217.575 19.684V27.328C216.812 28.5067 216.431 31.02 216.431 34.868C216.431 37.1213 216.604 38.8547 216.951 40.068C217.297 41.2813 217.956 42.1133 218.926 42.564C219.932 43.0147 221.353 43.24 223.191 43.24C223.988 43.24 224.803 43.1707 225.635 43.032C226.501 42.8933 227.333 42.7373 228.131 42.564V49.636C226.917 49.8787 225.635 50.0867 224.283 50.26C222.965 50.4333 221.648 50.52 220.331 50.52ZM219.031 37.936V32.164H220.747C220.747 31.3667 220.712 30.5173 220.643 29.616C220.608 28.7147 220.435 27.9693 220.123 27.38V19.736C223.416 20.0133 225.791 21.2093 227.247 23.324C228.703 25.404 229.431 28.3507 229.431 32.164C229.431 33.1347 229.396 34.14 229.327 35.18C229.257 36.1853 229.136 37.104 228.963 37.936H219.031ZM243.607 29.096V20.932C245.202 19.8227 247.213 19.4933 249.639 19.944V28.68C248.669 28.68 247.663 28.7147 246.623 28.784C245.618 28.8533 244.613 28.9573 243.607 29.096ZM241.631 50H232.271V20.1H240.227L241.631 24.104V50Z" fill="#222BAE"/>
</svg>
